<?xml version="1.0" encoding="UTF-8" standalone="no"?>
<!-- Created with Inkscape (http://www.inkscape.org/) -->

<svg
   version="1.1"
   id="svg2"
   width="1247.2"
   height="1247.2"
   viewBox="0 0 1247.2 1247.2"
   xmlns="http://www.w3.org/2000/svg"
   xmlns:svg="http://www.w3.org/2000/svg">
  <defs
     id="defs6">
    <clipPath
       clipPathUnits="userSpaceOnUse"
       id="clipPath18">
      <path
         d="M 0,0 H 935.4 V 935.4 H 0 Z"
         id="path16" />
    </clipPath>
  </defs>
  <g
     id="g8"
     transform="matrix(1.3333333,0,0,-1.3333333,0,1247.2)">
    <path
       d="M 0,0 H 935.4 V 935.4 H 0 Z"
       style="fill:#ffffff;fill-opacity:1;fill-rule:nonzero;stroke:none"
       id="path10" />
    <g
       id="g12">
      <g
         id="g14"
         clip-path="url(#clipPath18)">
        <g
           id="g20"
           transform="translate(53.6651,668.8126)">
          <path
             d="m 0,0 c 57.861,33.447 120.117,50.171 186.768,50.171 51.757,0 94.421,-11.231 127.99,-33.692 33.57,-22.46 50.354,-51.025 50.354,-85.693 0,-28.32 -10.986,-53.406 -32.959,-75.256 -21.972,-21.851 -52.002,-37.659 -90.088,-47.425 16.846,-46.386 39.734,-91.552 68.665,-135.498 28.931,-43.945 57.922,-77.636 86.975,-101.074 l -5.493,-1.831 c -36.377,-12.451 -72.022,-30.029 -106.934,-52.734 l -5.493,-3.662 -1.831,11.718 c -15.625,94.483 -37.475,174.561 -65.552,240.235 l -1.465,3.662 c -16.845,-7.813 -39.428,-14.038 -67.749,-18.677 l -2.929,-0.366 v -136.963 l 64.453,-68.848 H 15.381 l -5.86,9.888 h 174.317 l -53.101,56.397 v 147.583 l 7.691,1.098 c 27.832,2.93 51.147,8.423 69.946,16.48 -1.465,2.929 -2.319,4.76 -2.563,5.493 l -3.663,10.62 c -0.244,0.732 -0.854,2.197 -1.831,4.395 -15.136,-4.395 -43.701,-9.156 -85.693,-14.283 l -4.028,-0.732 v -163.33 l 41.748,-43.579 H -9.521 l 47.607,43.579 v 123.047 l -2.93,-0.367 c -14.16,-3.173 -26.977,-6.713 -38.452,-10.62 l -2.93,-1.098 -3.295,7.324 c 10.742,4.15 19.165,6.958 25.268,8.423 l 19.409,4.761 2.93,0.732 v 19.043 c -14.404,0 -32.349,-3.174 -53.833,-9.522 l -4.028,-1.464 c 0.488,3.418 2.929,11.352 7.324,23.803 0.488,0.977 2.197,6.47 5.127,16.48 0.244,0.732 0.61,1.831 1.098,3.296 10.987,-0.733 19.532,-1.099 25.635,-1.099 6.592,0 12.695,0.366 18.311,1.099 V -18.311 C 26.489,-11.475 14.893,-5.737 2.93,-1.099 Z m 110.596,9.521 v -197.387 c 7.08,0 13.794,0.61 20.141,1.831 V -5.859 c 13.428,3.662 29.541,5.493 48.34,5.493 47.608,0 79.956,-15.625 97.046,-46.875 -18.066,14.648 -33.936,24.719 -47.607,30.212 -13.672,5.493 -30.03,8.24 -49.073,8.24 -14.892,0 -27.954,-1.465 -39.184,-4.395 v -172.851 l 4.028,0.732 c 48.096,8.789 83.801,22.644 107.117,41.565 23.315,18.921 34.973,43.518 34.973,73.792 0,27.099 -10.498,49.499 -31.494,67.199 -20.996,17.701 -47.486,26.551 -79.468,26.551 -25.635,0 -47.241,-4.761 -64.819,-14.283 m 176.88,-219.726 c 15.38,-50.293 42.602,-99.487 81.665,-147.583 24.414,-30.029 55.297,-57.007 92.651,-80.933 -55.908,-14.892 -108.398,-37.597 -157.471,-68.115 l -3.296,-2.197 -7.324,5.859 c 46.631,30.518 96.314,52.979 149.048,67.383 -70.312,46.875 -125.61,121.826 -165.894,224.854 l -2.197,6.225 c 74.707,28.32 112.061,71.533 112.061,129.639 0,23.926 -9.644,50.049 -28.931,78.369 24.658,-22.461 36.987,-51.025 36.987,-85.693 0,-56.153 -35.766,-98.755 -107.299,-127.808 M 803.06,39.917 C 790.365,22.827 780.233,5.005 772.665,-13.55 757.772,-50.171 747.884,-72.632 743.001,-80.933 l -1.831,-2.197 c -0.976,2.686 -1.709,4.761 -2.197,6.226 -6.836,21.972 -12.451,37.231 -16.846,45.776 -4.394,8.545 -10.986,16.724 -19.775,24.536 -22.217,19.776 -47.485,29.663 -75.806,29.663 -26.123,0 -47.851,-7.263 -65.185,-21.789 -17.334,-14.527 -26.001,-32.776 -26.001,-54.749 0,-41.015 30.884,-68.97 92.651,-83.862 l 61.89,-15.015 c 88.135,-21.24 132.202,-67.749 132.202,-139.526 0,-40.039 -15.076,-73.67 -45.227,-100.891 -30.151,-27.222 -67.444,-40.833 -111.877,-40.833 -27.832,0 -58.96,4.273 -93.384,12.818 l -42.847,10.62 c -17.334,4.15 -31.616,6.225 -42.847,6.225 -14.892,0 -30.273,-4.76 -46.142,-14.282 l -2.93,5.127 c 30.274,45.654 51.514,89.111 63.721,130.371 l 6.592,-1.831 c 5.127,-38.33 20.507,-68.115 46.142,-89.355 25.635,-21.241 59.204,-31.861 100.708,-31.861 32.715,0 58.716,7.569 78.003,22.705 19.287,15.137 28.931,35.523 28.931,61.158 0,29.541 -13.428,53.955 -40.283,73.242 -19.288,13.672 -58.838,26.367 -118.653,38.086 -46.142,9.033 -79.589,24.048 -100.342,45.044 -20.751,20.996 -31.127,50.171 -31.127,87.524 0,38.574 13.855,69.885 41.564,93.933 27.711,24.048 63.782,36.072 108.216,36.072 28.564,0 61.889,-5.127 99.975,-15.381 17.823,-4.883 31.006,-7.324 39.551,-7.324 11.963,0 25.025,4.15 39.185,12.451 z m 22.705,-15.381 -3.296,-5.493 C 812.46,2.197 803.915,-13.916 796.834,-29.297 779.745,-65.186 770.101,-85.205 767.904,-89.355 l -1.831,-2.564 -8.789,3.662 1.465,3.296 c 7.08,16.113 17.334,37.109 30.761,62.988 l 24.903,48.34 1.831,2.93 z M 718.832,-48.34 c -26.856,28.565 -55.665,42.847 -86.426,42.847 -18.555,0 -33.936,-5.371 -46.143,-16.113 -12.207,-10.743 -18.31,-24.415 -18.31,-41.016 0,-18.066 12.329,-36.621 36.987,-55.664 l 2.93,-1.831 -1.831,-2.93 c -32.227,14.404 -48.34,35.278 -48.34,62.622 0,19.043 6.836,34.546 20.508,46.509 13.671,11.963 31.494,17.944 53.466,17.944 20.996,0 39.368,-4.455 55.115,-13.366 15.747,-8.912 27.283,-21.424 34.607,-37.537 z m 84.228,-145.386 c 33.203,-25.146 49.805,-59.57 49.805,-103.271 0,-46.631 -18.067,-86.121 -54.199,-118.469 -36.133,-32.349 -80.079,-48.523 -131.836,-48.523 -26.368,0 -50.171,2.685 -71.412,8.056 l -58.593,14.283 c -13.672,3.418 -28.321,5.127 -43.946,5.127 -13.916,0 -26.733,-2.808 -38.452,-8.423 l -4.394,10.62 c 12.695,5.859 25.635,8.789 38.818,8.789 14.649,0 31.372,-2.197 50.171,-6.592 l 56.396,-13.55 c 22.461,-5.371 46.143,-8.056 71.045,-8.056 48.829,0 90.393,15.564 124.695,46.692 34.302,31.127 51.453,68.786 51.453,112.976 0,37.353 -13.184,70.068 -39.551,98.144 z M 542.318,-299.194 c 9.033,-43.946 33.203,-75.074 72.51,-93.384 v -2.93 c -45.411,13.184 -72.876,44.678 -82.398,94.483 z m -45.776,118.652 12.451,-6.958 c 8.056,-14.404 31.616,-26.367 70.678,-35.889 l 58.96,-14.648 c 40.039,-10.01 66.712,-18.616 80.017,-25.818 13.306,-7.202 22.767,-18.127 28.382,-32.776 l -2.564,-1.465 c -10.986,12.696 -22.888,21.973 -35.705,27.832 -12.818,5.86 -37.415,13.062 -73.792,21.607 -52.734,12.207 -88.135,22.766 -106.201,31.677 -18.066,8.911 -28.808,21.057 -32.226,36.438"
             style="fill:#000000;fill-opacity:1;fill-rule:nonzero;stroke:none"
             id="path22" />
        </g>
      </g>
    </g>
  </g>
</svg>
